<?xml version="1.0" encoding="utf-8"?>
<svg viewBox="62.4239 61.2534 449.8564 449.8564" xmlns="http://www.w3.org/2000/svg">
  <g transform="matrix(1, 0, 0, 1, -7.105427357601002e-15, 0)">
    <g transform="matrix(1.18075, 0, 0, 1.18075, -1265.310491, -1395.820385)">
      <circle cx="1314.98" cy="1424.52" r="190.496" style="fill:rgb(88,86,224);"/>
    </g>
    <g transform="matrix(1, 0, 0, 1, -1017.490226, -1140.550108)">
      <g transform="matrix(0.707351,0.706862,-0.706862,0.707351,1331.93,-512.804)">
        <path d="M1244.39,1293.95L1244.39,1493.59C1244.39,1493.59 1243.58,1561.48 1319.29,1562.47C1395.27,1563.46 1394.17,1493.59 1394.17,1493.59L1394.17,1293.95" style="fill:none;stroke:white;stroke-width:31.25px;"/>
      </g>
      <g transform="matrix(-0.710067,-0.704134,0.704134,-0.710067,1284.12,3366.41)">
        <path d="M1244.39,1293.95L1244.39,1493.59C1244.39,1493.59 1243.58,1561.48 1319.29,1562.47C1395.27,1563.46 1394.17,1493.59 1394.17,1493.59L1394.17,1293.95" style="fill:none;stroke:white;stroke-width:31.25px;"/>
      </g>
    </g>
  </g>
</svg>